<svg width="956" height="661" viewBox="0 0 956 661" fill="none" xmlns="http://www.w3.org/2000/svg">
<path d="M508.283 660.839C732.033 660.839 913.418 641.261 913.418 617.11C913.418 592.959 732.033 573.381 508.283 573.381C284.534 573.381 103.148 592.959 103.148 617.11C103.148 641.261 284.534 660.839 508.283 660.839Z" fill="#CAB4FB"/>
<path d="M659.814 584.12L659.534 606.21C659.534 606.21 643.596 616.556 638.842 619.072C634.088 621.589 632.97 625.224 632.41 629.698C631.851 634.171 651.703 634.73 660.092 631.375C668.48 628.019 671.556 629.977 675.75 629.418C679.944 628.859 690.849 630.257 691.129 621.31L689.452 600.617L690.849 570.978L659.814 584.12Z" fill="#8B5CF6"/>
<path d="M675.751 626.343C671.557 626.902 668.481 624.945 660.093 628.301C652.416 631.371 635.183 631.153 632.736 627.666C632.609 628.325 632.498 628.998 632.41 629.698C631.851 634.172 651.703 634.731 660.092 631.375C668.48 628.02 671.556 629.978 675.75 629.419C679.944 628.86 690.849 630.257 691.129 621.31L690.985 619.534C689.716 627.025 679.728 625.812 675.751 626.343Z" fill="#F3EFFE"/>
<path d="M762.749 584.434L763.028 606.524C763.028 606.524 778.966 616.87 783.721 619.386C788.474 621.903 789.593 625.538 790.153 630.011C790.712 634.485 770.859 635.044 762.471 631.688C754.083 628.333 751.007 630.291 746.812 629.732C742.618 629.173 731.713 630.57 731.434 621.623L733.111 600.931L731.713 571.291L762.749 584.434Z" fill="#8B5CF6"/>
<path d="M746.811 626.656C751.005 627.215 754.081 625.258 762.469 628.614C770.147 631.684 787.379 631.466 789.826 627.979C789.954 628.638 790.065 629.311 790.153 630.013C790.712 634.486 770.859 635.045 762.471 631.69C754.083 628.334 751.007 630.291 746.812 629.733C742.618 629.174 731.713 630.572 731.434 621.624L731.578 619.849C732.846 627.339 742.836 626.125 746.811 626.656Z" fill="#F3EFFE"/>
<path d="M666.61 327.472C666.61 327.472 657.78 415.79 657.066 456.437C656.353 497.085 655.848 596.316 655.848 596.316H696.495L705.121 469.991L715.102 394.505L720.808 320.342L666.61 327.472Z" fill="#757575"/>
<path d="M775.253 205.366C775.253 205.366 763.194 188.752 739.461 184.533C715.423 180.259 710.615 183.464 710.615 183.464C710.615 183.464 705.807 180.259 681.768 184.533C658.035 188.752 645.977 205.366 645.977 205.366L654.524 252.376C664.14 264.662 659.332 299.92 658.797 307.398C658.263 314.876 664.674 316.479 664.674 316.479L660.935 326.63C669.482 337.313 710.615 341.054 710.615 341.054C710.615 341.054 751.749 337.314 760.294 326.63L756.555 316.479C756.555 316.479 762.966 314.876 762.432 307.398C761.898 299.92 757.09 264.662 766.706 252.376L775.253 205.366Z" fill="#B797FF"/>
<path d="M761.492 168.812C760.28 162.247 754.807 157.402 751.799 151.443C747.06 142.052 748.748 130.593 744.984 120.772C741.943 112.839 735.247 106.393 727.203 103.658C722.154 101.942 716.997 103.102 711.773 104.479C706.55 103.102 701.393 101.942 696.344 103.658C688.301 106.393 681.604 112.839 678.563 120.772C674.799 130.595 676.486 142.054 671.748 151.443C668.74 157.402 663.266 162.249 662.055 168.812C661.165 173.643 662.816 178.665 665.522 182.764C668.228 186.864 671.923 190.195 675.577 193.479C678.674 196.262 677.564 201.567 676.442 205.576C675.32 209.585 674.062 213.958 675.69 217.79C676.838 220.493 679.232 222.423 681.147 224.65C683.063 226.878 684.589 229.949 683.52 232.685C688.282 232.404 690.806 226.333 690.999 221.566C691.192 216.799 689.844 211.961 690.859 207.301C692.063 201.773 696.326 197.531 699.973 193.206C702.903 189.733 708.007 188.633 709.313 185.469C709.089 190.68 710.318 185.68 712.153 190.563C713.988 185.68 714.462 190.68 714.237 185.469C715.541 188.634 720.645 189.734 723.575 193.206C727.222 197.531 731.486 201.773 732.689 207.301C733.704 211.963 732.358 216.801 732.549 221.566C732.743 226.333 735.265 232.404 740.028 232.685C738.959 229.949 740.485 226.878 742.401 224.65C744.316 222.423 746.71 220.495 747.858 217.79C749.486 213.958 748.228 209.585 747.106 205.576C745.984 201.567 744.874 196.262 747.971 193.479C751.624 190.196 755.32 186.864 758.026 182.764C760.733 178.665 762.384 173.642 761.492 168.812Z" fill="#242424"/>
<path d="M717.761 196.198L716.886 196.813C712.294 200.037 706.128 199.858 701.733 196.372C698.646 193.923 696.873 190.179 696.937 186.239L697.259 166.318H723.467L723.149 186.034C723.083 190.088 721.08 193.867 717.761 196.198Z" fill="#F4956C"/>
<path d="M723.303 176.603L723.469 166.318H697.261L697.1 176.334C700.554 178.479 704.509 179.821 708.565 180.119C713.683 180.493 718.89 179.213 723.303 176.603Z" fill="#464B60"/>
<path d="M723.174 126.096H697.552C692.802 126.096 688.916 129.982 688.916 134.732V153.718C688.916 165.424 698.494 175.001 710.199 175.001H710.529C722.235 175.001 731.812 165.424 731.812 153.718V134.732C731.812 129.982 727.925 126.096 723.174 126.096Z" fill="#FFAE85"/>
<path d="M693.46 144.789C694.767 148.438 693.197 152.339 689.952 153.501C686.708 154.663 683.018 152.646 681.711 148.997C680.403 145.348 681.974 141.448 685.218 140.286C688.463 139.124 692.153 141.141 693.46 144.789Z" fill="#FFAE85"/>
<path d="M727.267 144.789C725.96 148.438 727.53 152.339 730.775 153.501C734.019 154.663 737.709 152.646 739.016 148.997C740.324 145.348 738.753 141.448 735.509 140.286C732.264 139.124 728.574 141.141 727.267 144.789Z" fill="#FFAE85"/>
<path d="M717.705 142.612C718.036 142.519 718.367 142.452 718.704 142.387C718.878 142.361 718.873 142.361 718.689 142.386C718.774 142.376 718.859 142.367 718.944 142.358C719.114 142.343 719.285 142.332 719.455 142.327C719.796 142.316 720.139 142.323 720.479 142.349C720.546 142.354 721.09 142.423 720.72 142.367C720.868 142.389 721.014 142.415 721.162 142.442C721.476 142.504 721.788 142.582 722.094 142.675C722.257 142.724 722.419 142.779 722.58 142.838C722.66 142.867 722.741 142.898 722.82 142.93C722.663 142.861 722.664 142.861 722.82 142.93C723.13 143.075 723.433 143.226 723.727 143.401C723.874 143.489 724.019 143.579 724.16 143.675C724.208 143.708 724.638 144.025 724.377 143.82C724.989 144.297 725.891 144.462 726.48 143.82C726.969 143.287 727.135 142.228 726.48 141.717C723.773 139.61 720.251 138.806 716.916 139.743C716.168 139.954 715.63 140.805 715.878 141.572C716.123 142.336 716.904 142.837 717.705 142.612Z" fill="#242424"/>
<path d="M722.01 148.036C722.01 149.345 720.95 150.407 719.64 150.407C718.331 150.407 717.27 149.346 717.27 148.036C717.27 146.728 718.33 145.666 719.64 145.666C720.95 145.666 722.01 146.727 722.01 148.036Z" fill="#242424"/>
<path d="M703.497 142.612C703.167 142.519 702.834 142.452 702.499 142.387C702.325 142.361 702.33 142.361 702.514 142.386C702.429 142.376 702.344 142.367 702.259 142.358C702.089 142.343 701.919 142.332 701.748 142.327C701.407 142.316 701.064 142.323 700.724 142.349C700.657 142.354 700.113 142.423 700.483 142.367C700.335 142.389 700.189 142.415 700.041 142.442C699.727 142.504 699.414 142.582 699.109 142.675C698.946 142.724 698.783 142.779 698.622 142.838C698.542 142.867 698.462 142.898 698.383 142.93C698.54 142.861 698.54 142.861 698.384 142.93C698.074 143.075 697.77 143.226 697.476 143.401C697.329 143.489 697.184 143.579 697.043 143.675C696.995 143.708 696.564 144.025 696.826 143.82C696.214 144.297 695.312 144.462 694.724 143.82C694.235 143.287 694.069 142.228 694.724 141.717C697.432 139.61 700.953 138.806 704.288 139.743C705.036 139.954 705.575 140.805 705.327 141.572C705.08 142.336 704.3 142.837 703.497 142.612Z" fill="#242424"/>
<path d="M699.191 148.036C699.191 149.345 700.252 150.407 701.562 150.407C702.87 150.407 703.932 149.346 703.932 148.036C703.932 146.728 702.872 145.666 701.562 145.666C700.252 145.666 699.191 146.727 699.191 148.036Z" fill="#242424"/>
<path d="M710.132 156.953C709.876 156.953 709.654 156.942 709.474 156.932C708.819 156.902 708.312 156.344 708.345 155.687C708.375 155.032 708.852 154.484 709.591 154.558C710.313 154.584 711.321 154.593 711.624 154.166C711.878 153.815 711.745 153.086 711.564 152.349L709.25 142.936C709.092 142.299 709.481 141.653 710.121 141.499C710.769 141.351 711.406 141.732 711.558 142.37L713.873 151.783C714.086 152.649 714.484 154.267 713.559 155.554C712.682 156.773 711.161 156.953 710.132 156.953Z" fill="#F4956C"/>
<path d="M716.859 160.272H703.773C704.924 162.55 707.433 164.523 709.984 164.523C713.744 164.521 716.032 162.724 716.859 160.272Z" fill="white"/>
<path d="M709.86 130.719C710.715 129.514 711.625 128.124 713.075 127.841C714.876 127.491 716.442 129.021 717.639 130.412C720.199 133.389 722.76 136.367 725.32 139.344C726.661 140.903 728.114 142.538 730.087 143.12C732.345 143.786 734.882 142.852 736.498 141.139C738.113 139.426 738.893 137.057 739.075 134.71C739.705 126.568 733.363 119.048 725.699 116.226C718.036 113.405 709.46 114.453 701.634 116.783C695.938 118.478 690.153 121.048 686.674 125.867C683.12 130.793 682.333 140.45 689.865 141.459C697.183 142.438 705.889 136.319 709.86 130.719Z" fill="#242424"/>
<path d="M775.254 205.366L825.634 264.718L797.824 293.242L761.455 251.168L763.594 206.956L775.254 205.366Z" fill="#B797FF"/>
<path d="M645.837 205.366L595.457 264.718L623.269 293.242L659.637 251.168L657.497 206.956L645.837 205.366Z" fill="#B797FF"/>
<path d="M758.984 327.472C758.984 327.472 767.815 415.79 768.529 456.437C769.242 497.085 769.747 596.316 769.747 596.316H729.099L720.474 469.991L710.493 394.505L704.787 320.342L758.984 327.472Z" fill="#757575"/>
<path d="M660.121 255.595C660.11 255.595 660.099 255.595 660.088 255.595C659.696 255.576 659.393 255.245 659.41 254.85C660.088 239.88 659.599 224.734 657.962 209.84C657.918 209.448 658.197 209.097 658.589 209.056C659.017 208.97 659.332 209.292 659.373 209.684C661.021 224.651 661.512 239.867 660.832 254.916C660.816 255.298 660.499 255.595 660.121 255.595Z" fill="#7E7E7E"/>
<path d="M763.709 258.447C763.322 258.447 763.006 258.139 762.998 257.753L761.803 208.652C761.795 208.26 762.103 207.936 762.498 207.925C762.503 207.925 762.509 207.925 762.514 207.925C762.9 207.925 763.217 208.233 763.225 208.619L764.42 257.72C764.428 258.112 764.12 258.436 763.725 258.447C763.72 258.447 763.714 258.447 763.709 258.447Z" fill="#7E7E7E"/>
<path d="M656.303 250.412C656.036 250.412 655.781 250.263 655.659 250.004L647.074 231.746C646.906 231.39 647.06 230.968 647.415 230.799C647.764 230.643 648.193 230.786 648.361 231.14L656.947 249.398C657.114 249.754 656.961 250.176 656.606 250.346C656.509 250.39 656.406 250.412 656.303 250.412Z" fill="#7E7E7E"/>
<path d="M768.052 248.174C768.038 248.174 768.025 248.174 768.011 248.174C767.619 248.149 767.319 247.812 767.341 247.42C767.641 242.402 769.817 237.456 773.315 233.853C773.59 233.572 774.045 233.566 774.321 233.836C774.604 234.112 774.61 234.561 774.337 234.842C771.072 238.207 769.041 242.822 768.763 247.504C768.739 247.882 768.428 248.174 768.052 248.174Z" fill="#7E7E7E"/>
<path d="M208.11 229.315L188.707 274.889C189.809 284.502 190.503 294.284 191.653 303.986C200.611 304.333 209.162 304.168 214.546 302.873C214.546 302.873 231.161 273.76 235.496 252.443C239.83 231.124 239.83 231.124 239.83 231.124L208.11 229.315Z" fill="#F4956C"/>
<path d="M387.654 220.785L434.699 290.992L399.959 301.847L355.084 233.089L387.654 220.785Z" fill="#F4956C"/>
<path d="M240.876 584.12L240.596 606.21C240.596 606.21 224.659 616.556 219.904 619.072C215.151 621.589 214.033 625.224 213.473 629.698C212.913 634.171 232.766 634.73 241.154 631.375C249.542 628.019 252.618 629.977 256.813 629.418C261.007 628.859 271.912 630.257 272.191 621.31L270.514 600.617L271.912 570.978L240.876 584.12Z" fill="#405C77"/>
<path d="M256.814 626.343C252.62 626.902 249.544 624.945 241.156 628.301C233.478 631.371 216.246 631.153 213.799 627.666C213.671 628.325 213.56 628.998 213.473 629.698C212.913 634.172 232.766 634.731 241.154 631.375C249.542 628.02 252.618 629.978 256.813 629.419C261.007 628.86 271.912 630.257 272.191 621.31L272.048 619.534C270.779 627.025 260.79 625.812 256.814 626.343Z" fill="#D1A78B"/>
<path d="M358.991 584.434L359.271 606.524C359.271 606.524 375.209 616.87 379.963 619.386C384.716 621.903 385.836 625.538 386.395 630.011C386.954 634.485 367.101 635.044 358.713 631.688C350.325 628.333 347.249 630.291 343.055 629.732C338.861 629.173 327.955 630.57 327.676 621.623L329.354 600.931L327.957 571.291L358.991 584.434Z" fill="#405C77"/>
<path d="M343.053 626.656C347.247 627.215 350.323 625.258 358.712 628.614C366.389 631.684 383.621 631.466 386.069 627.979C386.196 628.638 386.307 629.311 386.395 630.013C386.954 634.486 367.101 635.045 358.713 631.69C350.325 628.334 347.249 630.291 343.055 629.733C338.861 629.174 327.955 630.572 327.676 621.624L327.82 619.849C329.087 627.339 339.077 626.125 343.053 626.656Z" fill="#D1A78B"/>
<path d="M351.112 313.346L304.624 297.649L301.035 317.259L297.445 297.649L250.957 313.346C238.279 367.682 238.883 600.723 238.883 600.723H276.315L301.035 361.042L325.755 600.723H363.187C363.187 600.723 363.79 367.683 351.112 313.346Z" fill="#4F5960"/>
<path d="M251.06 342.481L250.867 341.064C260.846 339.717 268.878 330.078 268.41 320.018L269.835 319.951C270.339 330.721 261.741 341.04 251.06 342.481Z" fill="#3D4951"/>
<path d="M301.176 319.987H299.748V349.671H301.176V319.987Z" fill="#3D4951"/>
<path d="M303.198 342.974C301.548 342.974 299.308 342.397 296.965 341.792C294.385 341.126 291.726 340.431 290.372 340.715L290.043 339.325C298.416 337.066 306.685 334.163 314.62 330.693L315.191 332.005C308.385 334.978 301.339 337.54 294.188 339.641C295.178 339.856 296.239 340.128 297.321 340.408C299.901 341.075 302.568 341.768 303.915 341.485L304.202 342.885C303.9 342.947 303.564 342.974 303.198 342.974Z" fill="#3D4951"/>
<path d="M271.49 589.745H243.109V591.173H271.49V589.745Z" fill="#3D4951"/>
<path d="M357.823 588.539H330.648V589.967H357.823V588.539Z" fill="#3D4951"/>
<path d="M351.068 343.515C345.402 342.99 340.075 340.172 336.453 335.785C332.833 331.392 331.079 325.628 331.643 319.969L333.062 320.109C332.537 325.393 334.175 330.777 337.555 334.876C340.936 338.973 345.909 341.604 351.199 342.094L351.068 343.515Z" fill="#3D4951"/>
<path d="M360.353 247.195L396.58 228.086C396.58 228.086 375.082 188.276 366.324 181.11C357.566 173.944 335.462 165.25 313.074 161.834L301.035 172.351L288.997 161.834C266.608 165.25 244.505 173.944 235.746 181.11C226.988 188.276 205.49 228.086 205.49 228.086L241.718 247.195L250.078 235.251C250.078 235.251 253.661 297.753 248.884 305.715C244.106 313.677 249.282 317.26 249.282 317.26H301.035H352.788C352.788 317.26 357.963 313.677 353.186 305.715C348.408 297.753 351.991 235.251 351.991 235.251L360.353 247.195Z" fill="#B797FF"/>
<path d="M352.454 214.467H249.371V234.489H352.454V214.467Z" fill="#B797FF"/>
<path d="M302.212 184.292C314.141 184.158 325.574 176.434 330.543 165.536C324.898 164.019 319.001 162.736 313.074 161.832L301.035 172.35L288.997 161.832C283.585 162.658 278.194 163.797 273 165.144C277.948 176.481 289.907 184.43 302.212 184.292Z" fill="#B797FF"/>
<path d="M308.219 170.989L307.43 171.542C303.293 174.447 297.74 174.285 293.779 171.145C290.997 168.939 289.401 165.566 289.459 162.017L289.749 144.07H313.358L313.072 161.832C313.012 165.486 311.209 168.89 308.219 170.989Z" fill="#F4956C"/>
<path d="M313.26 152.851L313.36 144.072H289.75L289.645 153.188C293.411 155.39 297.781 156.556 302.141 156.368C306.073 156.198 309.922 154.935 313.26 152.851Z" fill="#464B60"/>
<path d="M313.094 107.837H290.012C285.733 107.837 282.232 111.338 282.232 115.617V132.721C282.232 143.266 290.86 151.894 301.405 151.894H301.703C312.247 151.894 320.875 143.266 320.875 132.721V115.617C320.875 111.338 317.373 107.837 313.094 107.837Z" fill="#FFAE85"/>
<path d="M286.328 124.678C287.505 127.965 286.091 131.48 283.168 132.527C280.246 133.574 276.922 131.757 275.745 128.47C274.568 125.183 275.982 121.668 278.904 120.621C281.826 119.575 285.15 121.391 286.328 124.678Z" fill="#FFAE85"/>
<path d="M316.784 124.678C315.607 127.965 317.021 131.48 319.943 132.527C322.866 133.574 326.19 131.757 327.367 128.47C328.545 125.183 327.13 121.668 324.207 120.621C321.285 119.575 317.961 121.391 316.784 124.678Z" fill="#FFAE85"/>
<path d="M281.579 123.333C284.433 123.261 287.008 121.323 288.448 118.858C289.888 116.394 290.343 113.472 290.419 110.618C294.152 113.822 299.15 117.335 303.998 118.169C303.318 116.377 303.087 114.416 303.33 112.516C306.774 115.16 310.934 116.865 315.243 117.394C314.756 116.217 314.27 115.04 313.782 113.864C315.988 116.592 318.194 119.322 320.4 122.05C325.592 112.38 324.476 100.554 315.925 93.676C307.374 86.7964 293.939 86.9704 285.544 94.0391C277.151 101.106 276.344 113.689 281.579 123.333Z" fill="#3E3E3E"/>
<path d="M308.17 122.715C308.467 122.631 308.767 122.569 309.07 122.512C309.226 122.488 309.222 122.488 309.056 122.51C309.133 122.501 309.21 122.494 309.285 122.486C309.438 122.472 309.592 122.462 309.745 122.457C310.054 122.446 310.361 122.453 310.667 122.477C310.728 122.482 311.217 122.545 310.885 122.494C311.018 122.514 311.151 122.536 311.284 122.562C311.568 122.619 311.847 122.687 312.124 122.772C312.271 122.817 312.417 122.867 312.561 122.919C312.634 122.945 312.705 122.972 312.776 123.001C312.634 122.939 312.634 122.939 312.775 123.001C313.054 123.131 313.328 123.268 313.594 123.426C313.726 123.504 313.856 123.586 313.983 123.672C314.027 123.701 314.415 123.987 314.178 123.804C314.73 124.233 315.541 124.382 316.071 123.804C316.513 123.324 316.662 122.369 316.071 121.91C313.632 120.011 310.461 119.286 307.456 120.132C306.782 120.321 306.297 121.088 306.52 121.779C306.745 122.467 307.446 122.917 308.17 122.715Z" fill="#BC864B"/>
<path d="M312.047 127.603C312.047 128.781 311.09 129.737 309.912 129.737C308.732 129.737 307.777 128.781 307.777 127.603C307.777 126.423 308.734 125.468 309.912 125.468C311.092 125.468 312.047 126.423 312.047 127.603Z" fill="#242424"/>
<path d="M295.369 122.715C295.072 122.631 294.772 122.569 294.469 122.512C294.313 122.488 294.317 122.488 294.483 122.51C294.406 122.501 294.331 122.494 294.254 122.486C294.101 122.472 293.947 122.462 293.794 122.457C293.487 122.446 293.179 122.453 292.872 122.477C292.811 122.482 292.322 122.545 292.654 122.494C292.521 122.514 292.388 122.536 292.255 122.562C291.971 122.619 291.692 122.687 291.415 122.772C291.268 122.817 291.122 122.867 290.978 122.919C290.905 122.945 290.834 122.972 290.763 123.001C290.905 122.939 290.905 122.939 290.764 123.001C290.485 123.131 290.211 123.268 289.946 123.426C289.813 123.504 289.685 123.586 289.557 123.672C289.513 123.701 289.126 123.987 289.363 123.804C288.812 124.233 287.999 124.382 287.469 123.804C287.028 123.324 286.878 122.369 287.469 121.91C289.908 120.011 293.08 119.286 296.085 120.132C296.759 120.321 297.244 121.088 297.02 121.779C296.794 122.467 296.093 122.917 295.369 122.715Z" fill="#BC864B"/>
<path d="M291.488 127.603C291.488 128.781 292.445 129.737 293.623 129.737C294.803 129.737 295.758 128.781 295.758 127.603C295.758 126.423 294.801 125.468 293.623 125.468C292.445 125.468 291.488 126.423 291.488 127.603Z" fill="#242424"/>
<path d="M301.344 135.635C301.114 135.635 300.913 135.624 300.752 135.616C300.162 135.588 299.706 135.087 299.736 134.494C299.763 133.903 300.192 133.41 300.858 133.477C301.509 133.5 302.417 133.508 302.689 133.123C302.916 132.807 302.797 132.151 302.634 131.487L300.55 123.007C300.407 122.435 300.759 121.852 301.335 121.713C301.918 121.578 302.493 121.922 302.63 122.498L304.714 130.978C304.907 131.759 305.264 133.215 304.431 134.374C303.642 135.473 302.272 135.635 301.344 135.635Z" fill="#F4956C"/>
<path d="M307.403 138.625H295.615C296.652 140.676 298.912 142.453 301.211 142.453C304.597 142.453 306.657 140.834 307.403 138.625Z" fill="white"/>
<path d="M249.785 237.024C249.409 237.024 249.095 236.729 249.076 236.348C248.177 219.181 247.708 201.758 247.684 184.564C247.684 184.172 248 183.853 248.393 183.853H248.395C248.787 183.853 249.106 184.169 249.106 184.564C249.13 201.732 249.598 219.132 250.495 236.275C250.516 236.667 250.214 237 249.822 237.024C249.81 237.024 249.798 237.024 249.785 237.024Z" fill="#526C7F"/>
<path d="M249.385 231.527C249.085 231.527 248.805 231.335 248.708 231.035L239.453 202.468C239.332 202.093 239.536 201.693 239.91 201.571C240.29 201.454 240.687 201.657 240.806 202.03L250.062 230.597C250.182 230.972 249.978 231.372 249.604 231.494C249.53 231.516 249.456 231.527 249.385 231.527Z" fill="#526C7F"/>
<path d="M352.178 237.024C352.165 237.024 352.153 237.024 352.141 237.024C351.749 237.002 351.447 236.667 351.468 236.275C352.367 219.132 352.834 201.732 352.857 184.564C352.857 184.169 353.176 183.853 353.568 183.853H353.57C353.962 183.853 354.279 184.172 354.279 184.564C354.256 201.758 353.788 219.183 352.887 236.348C352.868 236.729 352.554 237.024 352.178 237.024Z" fill="#526C7F"/>
<path d="M352.575 231.527C352.502 231.527 352.428 231.516 352.356 231.494C351.981 231.372 351.777 230.972 351.898 230.597L361.155 202.03C361.275 201.657 361.673 201.454 362.051 201.571C362.425 201.693 362.629 202.093 362.507 202.468L353.25 231.035C353.154 231.335 352.875 231.527 352.575 231.527Z" fill="#526C7F"/>
<path d="M434.333 573.415L433.971 602.026C433.971 602.026 413.328 615.426 407.17 618.686C401.014 621.945 399.565 626.653 398.841 632.448C398.116 638.242 423.83 638.967 434.696 634.621C445.561 630.275 449.545 632.81 454.977 632.086C460.41 631.361 474.534 633.173 474.896 621.584L472.722 594.783L474.534 556.394L434.333 573.415Z" fill="#8B5CF6"/>
<path d="M454.977 628.103C449.545 628.828 445.561 626.293 434.696 630.638C424.753 634.615 402.432 634.333 399.263 629.816C399.099 630.669 398.955 631.541 398.841 632.448C398.116 638.242 423.83 638.967 434.696 634.621C445.561 630.275 449.545 632.81 454.977 632.086C460.41 631.361 474.534 633.173 474.896 621.584L474.709 619.283C473.065 628.988 460.126 627.417 454.977 628.103Z" fill="#FFFBEE"/>
<path d="M582.879 181.558C572.124 173.078 558.576 166.623 547.172 162.147C534.295 157.092 520.632 154.403 506.803 154.048L506.541 154.041L502.991 163.805L499.441 154.041L499.179 154.048C485.35 154.403 471.686 157.092 458.809 162.147C447.405 166.623 433.857 173.08 423.103 181.558C400.023 199.756 371.176 261.446 371.176 261.446L410.233 272.541C420.884 251.681 442.188 225.496 442.188 225.496L453.727 289.85H502.992H552.257L563.796 225.496C563.796 225.496 585.1 251.681 595.752 272.541L634.808 261.446C634.806 261.446 605.957 199.754 582.879 181.558Z" fill="#B797FF"/>
<path d="M530.124 108.936C530.183 101.387 524.672 94.0315 518.366 89.8813C519.268 89.7607 519.852 88.6111 519.42 87.811C519.158 87.3259 518.642 87.0395 518.142 86.808C515.066 85.3898 510.836 85.0884 507.571 85.9845C503.341 83.3551 498.164 82.285 493.239 83.0249C492.021 83.2085 490.741 83.5415 489.906 84.4472C489.072 85.3529 488.94 86.9916 489.932 87.7205C490.446 88.0973 491.227 88.259 491.385 88.8769C491.538 89.4812 490.945 90.0046 490.386 90.2786C488.329 91.2926 485.878 91.2172 483.793 92.1695C482.782 92.6326 481.851 93.3684 481.384 94.3768C480.917 95.3867 481 96.6897 481.768 97.494C482.536 98.2983 484.012 98.3736 484.723 97.5186C481.359 101.14 478.893 105.731 478.435 110.652C477.976 115.572 479.716 120.797 483.495 123.981C493.984 132.82 511.221 127.586 524.613 124.618L526.561 122.343C527.921 117.907 528.025 113.093 526.861 108.602C527.779 109.321 529.984 110.456 530.124 108.936Z" fill="#242424"/>
<path d="M486.975 117.861C484.81 115.516 481.637 115.292 479.889 117.359C478.14 119.428 478.477 123.004 480.642 125.35C482.807 127.695 485.98 127.919 487.729 125.852C489.478 123.783 489.141 120.206 486.975 117.861Z" fill="#FFAE85"/>
<path d="M521.428 117.861C523.593 115.516 526.767 115.292 528.515 117.359C530.263 119.428 529.926 123.004 527.761 125.35C525.596 127.695 522.423 127.919 520.675 125.852C518.925 123.783 519.262 120.206 521.428 117.861Z" fill="#FFAE85"/>
<path d="M510.84 163.622L510.055 164.174C505.934 167.068 500.401 166.906 496.455 163.778C493.684 161.582 492.094 158.221 492.15 154.684L492.439 136.805H515.961L515.674 154.499C515.617 158.138 513.819 161.53 510.84 163.622Z" fill="#F4956C"/>
<path d="M515.839 146.53L515.962 136.805H492.44L492.336 145.357C495.898 147.418 499.94 148.654 504.052 148.842C508.092 149.025 512.156 148.196 515.839 146.53Z" fill="#464B60"/>
<path d="M515.701 106.396H492.704C488.442 106.396 484.953 109.884 484.953 114.148V125.498C484.953 136.003 493.548 144.6 504.055 144.6H504.351C514.857 144.6 523.452 136.005 523.452 125.498V114.148C523.452 109.884 519.964 106.396 515.701 106.396Z" fill="#FFAE85"/>
<path d="M510.578 116.262C510.874 116.178 511.173 116.118 511.476 116.061C511.632 116.037 511.626 116.037 511.462 116.059C511.539 116.05 511.614 116.043 511.691 116.035C511.843 116.021 511.996 116.011 512.15 116.006C512.457 115.995 512.764 116.002 513.069 116.026C513.129 116.03 513.617 116.092 513.286 116.043C513.418 116.063 513.55 116.085 513.683 116.111C513.965 116.166 514.245 116.236 514.52 116.321C514.667 116.366 514.812 116.414 514.956 116.468C515.028 116.494 515.1 116.521 515.171 116.55C515.03 116.488 515.028 116.488 515.17 116.55C515.448 116.68 515.72 116.816 515.985 116.973C516.116 117.051 516.246 117.133 516.373 117.218C516.415 117.247 516.803 117.532 516.567 117.349C517.117 117.776 517.925 117.924 518.454 117.349C518.894 116.87 519.042 115.919 518.454 115.462C516.023 113.57 512.864 112.849 509.87 113.689C509.198 113.878 508.715 114.642 508.938 115.33C509.159 116.015 509.859 116.465 510.578 116.262Z" fill="#242424"/>
<path d="M514.444 121.131C514.444 122.306 513.492 123.258 512.318 123.258C511.144 123.258 510.191 122.306 510.191 121.131C510.191 119.957 511.144 119.005 512.318 119.005C513.492 119.004 514.444 119.956 514.444 121.131Z" fill="#242424"/>
<path d="M497.826 116.262C497.53 116.178 497.231 116.118 496.928 116.061C496.772 116.037 496.778 116.037 496.942 116.059C496.865 116.05 496.79 116.043 496.713 116.035C496.561 116.021 496.408 116.011 496.254 116.006C495.947 115.995 495.64 116.002 495.335 116.026C495.274 116.03 494.787 116.092 495.118 116.043C494.985 116.063 494.854 116.085 494.721 116.111C494.439 116.166 494.159 116.236 493.884 116.321C493.737 116.366 493.592 116.414 493.448 116.468C493.375 116.494 493.304 116.521 493.233 116.55C493.374 116.488 493.375 116.488 493.234 116.55C492.956 116.68 492.683 116.816 492.419 116.973C492.287 117.051 492.157 117.133 492.031 117.218C491.989 117.247 491.602 117.532 491.838 117.349C491.289 117.776 490.479 117.924 489.951 117.349C489.513 116.87 489.364 115.919 489.951 115.462C492.382 113.57 495.542 112.849 498.535 113.689C499.207 113.878 499.691 114.642 499.467 115.33C499.247 116.015 498.546 116.465 497.826 116.262Z" fill="#242424"/>
<path d="M493.957 121.131C493.957 122.306 494.909 123.258 496.084 123.258C497.258 123.258 498.21 122.306 498.21 121.131C498.21 119.957 497.258 119.005 496.084 119.005C494.909 119.004 493.957 119.956 493.957 121.131Z" fill="#242424"/>
<path d="M503.782 129.135C503.553 129.135 503.351 129.124 503.191 129.116C502.603 129.088 502.148 128.588 502.177 127.998C502.204 127.41 502.632 126.918 503.295 126.984C503.943 127.007 504.849 127.015 505.12 126.632C505.348 126.317 505.228 125.662 505.065 125.001L502.988 116.553C502.847 115.981 503.196 115.402 503.771 115.262C504.352 115.129 504.923 115.47 505.061 116.044L507.138 124.493C507.33 125.271 507.687 126.722 506.858 127.877C506.07 128.975 504.705 129.135 503.782 129.135Z" fill="#F4956C"/>
<path d="M509.816 132.114H498.072C499.105 134.157 501.358 135.929 503.648 135.929C507.021 135.927 509.075 134.313 509.816 132.114Z" fill="white"/>
<path d="M483.457 116.044C484.662 116.707 485.711 117.654 486.493 118.786C486.771 118.777 487.059 119.105 487.337 119.097C487.66 116.556 487.982 114.015 488.306 111.474C490.11 112.669 492.341 113.261 494.287 112.316C496.232 111.369 497.77 109.766 499.2 108.142C499.349 109.474 500.581 110.519 501.906 110.728C503.23 110.936 504.588 110.433 505.673 109.647C506.758 108.86 507.618 107.809 508.465 106.769C509.539 109.194 512.188 111.313 514.788 111.836C516.079 112.095 517.482 112.068 518.595 112.773C520.58 114.034 520.635 116.85 521.601 118.994C521.879 119.612 522.4 120.27 523.073 120.187C523.544 120.13 523.902 119.701 524.028 119.243C524.152 118.786 524.093 118.299 524.033 117.828C523.749 115.615 523.96 113.251 523.632 111.046C523.301 108.84 522.355 106.643 520.614 105.247C518.699 103.711 516.127 103.342 513.691 103.029C507.805 102.272 501.796 101.519 495.972 102.659C492.681 103.304 489.429 104.603 487.015 106.932C484.601 109.262 482.813 112.753 483.457 116.044Z" fill="#242424"/>
<path d="M544.718 247.399H523.206L518.879 219.447H548.249L544.718 247.399Z" fill="#2D2D2D"/>
<path d="M563.891 226.672L562.445 226.466C564.264 213.837 567.408 201.351 571.794 189.356L573.166 189.858C568.813 201.758 565.694 214.144 563.891 226.672Z" fill="#2E2E2E"/>
<path d="M567.988 222.358L566.949 221.332C569.532 218.726 572.946 216.949 576.564 216.331L576.809 217.768C573.489 218.336 570.357 219.966 567.988 222.358Z" fill="#2E2E2E"/>
<path d="M440.949 226.146C440.364 214.034 438.164 202.049 434.41 190.526L435.798 190.075C439.592 201.72 441.816 213.834 442.405 226.078L440.949 226.146Z" fill="#2E2E2E"/>
<path d="M437.144 221.87C434.797 218.993 432.062 216.463 429.012 214.353L429.842 213.15C433.006 215.34 435.843 217.964 438.277 220.947L437.144 221.87Z" fill="#2E2E2E"/>
<path d="M505.558 192.275H504.098V261.461H505.558V192.275Z" fill="#2E2E2E"/>
<path d="M499.264 201.932C499.264 203.137 498.287 204.114 497.081 204.114C495.875 204.114 494.898 203.137 494.898 201.932C494.898 200.726 495.875 199.749 497.081 199.749C498.287 199.749 499.264 200.727 499.264 201.932Z" fill="#2E2E2E"/>
<path d="M499.264 216.804C499.264 218.01 498.287 218.986 497.081 218.986C495.875 218.986 494.898 218.01 494.898 216.804C494.898 215.598 495.875 214.621 497.081 214.621C498.287 214.621 499.264 215.599 499.264 216.804Z" fill="#2E2E2E"/>
<path d="M499.264 231.677C499.264 232.883 498.287 233.86 497.081 233.86C495.875 233.86 494.898 232.883 494.898 231.677C494.898 230.471 495.875 229.494 497.081 229.494C498.287 229.494 499.264 230.471 499.264 231.677Z" fill="#2E2E2E"/>
<path d="M499.264 246.548C499.264 247.754 498.287 248.731 497.081 248.731C495.875 248.731 494.898 247.754 494.898 246.548C494.898 245.342 495.875 244.365 497.081 244.365C498.287 244.365 499.264 245.342 499.264 246.548Z" fill="#2E2E2E"/>
<path d="M431.168 358.989C431.357 362.901 424.232 579.857 424.232 579.857L480.947 577.107L492.19 384.455L431.168 358.989Z" fill="#2E2E2E"/>
<path d="M422.457 579.943L482.609 577.027L483.671 558.841L423.053 561.78C422.682 573.11 422.457 579.943 422.457 579.943Z" fill="#5062AD"/>
<path d="M570.084 573.415L570.445 602.026C570.445 602.026 591.088 615.426 597.246 618.686C603.402 621.945 604.852 626.653 605.575 632.448C606.3 638.242 580.586 638.967 569.72 634.621C558.855 630.275 554.872 632.81 549.439 632.086C544.006 631.361 529.883 633.173 529.52 621.584L531.693 594.783L529.881 556.394L570.084 573.415Z" fill="#8B5CF6"/>
<path d="M549.441 628.103C554.874 628.828 558.857 626.293 569.722 630.638C579.666 634.615 601.986 634.333 605.155 629.816C605.32 630.669 605.463 631.541 605.577 632.448C606.302 638.242 580.588 638.967 569.722 634.621C558.857 630.275 554.874 632.81 549.441 632.086C544.008 631.361 529.885 633.173 529.521 621.584L529.708 619.283C531.353 628.988 544.292 627.417 549.441 628.103Z" fill="#DBCCFC"/>
<path d="M573.253 358.989C573.064 362.901 580.188 579.857 580.188 579.857L523.474 577.107L512.23 384.455L573.253 358.989Z" fill="#757575"/>
<path d="M581.962 579.943L521.81 577.027L520.748 558.841L581.366 561.78C581.737 573.11 581.962 579.943 581.962 579.943Z" fill="white"/>
<path d="M862 393.557C631.597 420.273 395.778 420.809 165 395.132C179.222 342.088 193.444 289.044 207.665 236C410.117 259.542 617.352 260.077 820.179 237.576C834.121 289.569 848.06 341.563 862 393.557Z" fill="#DBCCFC"/>
<path d="M213.068 274.837C207.595 271.462 201.156 269.669 194.726 269.729C192.598 269.748 190.339 270.018 188.679 271.349C186.09 273.424 185.872 277.217 185.869 280.536C183.54 281.358 181.288 283.117 180.708 285.518C180.127 287.918 180.836 290.593 182.533 292.389C180.997 294.202 181.498 298.627 183.264 300.217C181.321 301.947 182.035 306.517 183.882 308.35C185.729 310.183 188.456 310.788 191.048 311.025C195.448 311.426 199.923 310.996 204.166 309.764C205.471 309.386 206.841 308.867 207.608 307.746C208.374 306.625 208.13 304.752 206.848 304.308C208.189 303.219 209.225 301.662 209.909 300.076C210.592 298.488 210.302 296.336 208.81 295.464C209.992 294.576 210.786 292.647 210.766 291.168C210.747 289.69 209.988 288.239 208.784 287.381C211.012 286.647 213.111 284.926 213.933 282.729C214.752 280.53 215.065 276.067 213.068 274.837Z" fill="#F4956C"/>
<path d="M807.854 265.378C813.328 262.003 819.767 260.21 826.197 260.27C828.323 260.289 830.584 260.559 832.243 261.89C834.833 263.965 835.051 267.758 835.054 271.077C837.383 271.899 839.634 273.658 840.215 276.059C840.796 278.459 840.086 281.134 838.39 282.93C839.926 284.743 839.425 289.168 837.658 290.758C839.601 292.488 838.887 297.058 837.04 298.891C835.193 300.724 832.467 301.329 829.874 301.566C825.475 301.967 821 301.537 816.756 300.305C815.452 299.927 814.082 299.408 813.316 298.287C812.55 297.166 812.794 295.293 814.076 294.849C812.735 293.76 811.699 292.203 811.015 290.617C810.332 289.029 810.623 286.877 812.114 286.005C810.932 285.117 810.138 283.188 810.158 281.709C810.177 280.231 810.936 278.78 812.14 277.922C809.912 277.188 807.813 275.467 806.991 273.27C806.169 271.072 805.858 266.61 807.854 265.378Z" fill="#F4956C"/>
<path d="M875.583 106.834C881.486 106.834 886.272 102.048 886.272 96.1448C886.272 90.2416 881.486 85.4561 875.583 85.4561C869.68 85.4561 864.895 90.2416 864.895 96.1448C864.895 102.048 869.68 106.834 875.583 106.834Z" fill="#EEFBFF"/>
<path d="M579.359 109.125C584.841 109.125 589.285 104.681 589.285 99.199C589.285 93.7173 584.841 89.2734 579.359 89.2734C573.877 89.2734 569.434 93.7173 569.434 99.199C569.434 104.681 573.877 109.125 579.359 109.125Z" fill="#EEFBFF"/>
<path d="M153.554 324.188C155.558 324.188 157.182 317.081 157.182 308.313C157.182 299.546 155.558 292.438 153.554 292.438C151.55 292.438 149.926 299.546 149.926 308.313C149.926 317.081 151.55 324.188 153.554 324.188Z" fill="#EEFBFF"/>
<path d="M153.553 311.942C162.32 311.942 169.427 310.318 169.427 308.314C169.427 306.31 162.32 304.686 153.553 304.686C144.785 304.686 137.678 306.31 137.678 308.314C137.678 310.318 144.785 311.942 153.553 311.942Z" fill="#EEFBFF"/>
<path d="M825.827 208.869C827.831 208.869 829.456 201.761 829.456 192.994C829.456 184.227 827.831 177.119 825.827 177.119C823.824 177.119 822.199 184.227 822.199 192.994C822.199 201.761 823.824 208.869 825.827 208.869Z" fill="#EEFBFF"/>
<path d="M825.828 196.623C834.595 196.623 841.703 194.998 841.703 192.994C841.703 190.991 834.595 189.366 825.828 189.366C817.061 189.366 809.953 190.991 809.953 192.994C809.953 194.998 817.061 196.623 825.828 196.623Z" fill="#EEFBFF"/>
<path d="M842.381 532.281C842.381 542.901 840.413 551.512 837.985 551.512C835.557 551.512 833.59 542.901 833.59 532.281C833.59 521.661 835.557 513.051 837.985 513.051C840.413 513.051 842.381 521.661 842.381 532.281Z" fill="#EEFBFF"/>
<path d="M837.984 527.885C848.605 527.885 857.215 529.852 857.215 532.28C857.215 534.708 848.605 536.676 837.984 536.676C827.364 536.676 818.754 534.708 818.754 532.28C818.754 529.852 827.364 527.885 837.984 527.885Z" fill="#EEFBFF"/>
<path d="M67.8962 473.247C69.7956 473.247 71.3353 466.512 71.3353 458.203C71.3353 449.894 69.7956 443.158 67.8962 443.158C65.9968 443.158 64.457 449.894 64.457 458.203C64.457 466.512 65.9968 473.247 67.8962 473.247Z" fill="#EEFBFF"/>
<path d="M67.8961 461.642C76.205 461.642 82.9406 460.102 82.9406 458.203C82.9406 456.303 76.205 454.764 67.8961 454.764C59.5872 454.764 52.8516 456.303 52.8516 458.203C52.8516 460.102 59.5872 461.642 67.8961 461.642Z" fill="#EEFBFF"/>
<path d="M940.922 352.62C942.821 352.62 944.361 345.885 944.361 337.576C944.361 329.267 942.821 322.531 940.922 322.531C939.022 322.531 937.482 329.267 937.482 337.576C937.482 345.885 939.022 352.62 940.922 352.62Z" fill="#EEFBFF"/>
<path d="M940.921 341.014C949.23 341.014 955.966 339.474 955.966 337.575C955.966 335.675 949.23 334.136 940.921 334.136C932.613 334.136 925.877 335.675 925.877 337.575C925.877 339.474 932.613 341.014 940.921 341.014Z" fill="#EEFBFF"/>
<path d="M373.596 92.9657C374.977 92.9657 376.098 88.0643 376.098 82.018C376.098 75.9718 374.977 71.0703 373.596 71.0703C372.214 71.0703 371.094 75.9718 371.094 82.018C371.094 88.0643 372.214 92.9657 373.596 92.9657Z" fill="#EEFBFF"/>
<path d="M373.596 79.5166C379.643 79.5166 384.544 80.6374 384.544 82.0185C384.544 83.401 379.643 84.5205 373.596 84.5205C367.55 84.5205 362.648 83.3997 362.648 82.0185C362.648 80.6374 367.55 79.5166 373.596 79.5166Z" fill="#EEFBFF"/>
<path d="M651.844 119.619C651.844 125.665 650.723 130.568 649.342 130.568C647.959 130.568 646.84 125.667 646.84 119.619C646.84 113.571 647.961 108.671 649.342 108.671C650.724 108.671 651.844 113.572 651.844 119.619Z" fill="#EEFBFF"/>
<path d="M649.342 122.121C655.389 122.121 660.29 121.001 660.29 119.619C660.29 118.237 655.389 117.117 649.342 117.117C643.296 117.117 638.395 118.237 638.395 119.619C638.395 121.001 643.296 122.121 649.342 122.121Z" fill="#EEFBFF"/>
<path d="M141.432 383.631C141.432 387.676 138.154 390.955 134.109 390.955C130.064 390.955 126.785 387.676 126.785 383.631C126.785 379.586 130.064 376.308 134.109 376.308C138.154 376.306 141.432 379.585 141.432 383.631Z" fill="#EEFBFF"/>
<path d="M876.048 269.865C876.048 273.333 873.238 276.143 869.77 276.143C866.302 276.143 863.492 273.333 863.492 269.865C863.492 266.397 866.302 263.587 869.77 263.587C873.238 263.587 876.048 266.397 876.048 269.865Z" fill="#EEFBFF"/>
<path d="M890.199 410.321C890.199 414.806 886.563 418.442 882.078 418.442C877.593 418.442 873.957 414.806 873.957 410.321C873.957 405.837 877.593 402.2 882.078 402.2C886.563 402.2 890.199 405.837 890.199 410.321Z" fill="#EEFBFF"/>
<path d="M206.406 531.446C211.028 531.446 214.776 527.698 214.776 523.075C214.776 518.453 211.028 514.705 206.406 514.705C201.783 514.705 198.035 518.453 198.035 523.075C198.035 527.698 201.783 531.446 206.406 531.446Z" fill="#EEFBFF"/>
<path d="M448.727 339.133V309.554H457.48V339.133C457.48 341.986 456.855 344.439 455.606 346.491C454.358 348.523 452.65 350.087 450.484 351.181C448.337 352.276 445.917 352.823 443.224 352.823C440.434 352.823 437.965 352.354 435.818 351.416C433.672 350.478 431.984 349.041 430.754 347.107C429.525 345.152 428.91 342.68 428.91 339.69H437.721C437.721 341.253 437.936 342.494 438.365 343.413C438.814 344.331 439.448 344.986 440.268 345.377C441.087 345.768 442.073 345.963 443.224 345.963C444.337 345.963 445.303 345.699 446.122 345.172C446.942 344.644 447.576 343.872 448.025 342.856C448.493 341.84 448.727 340.599 448.727 339.133Z" fill="#5C5C5C"/>
<path d="M463.1 336.7V336.084C463.1 333.758 463.432 331.618 464.095 329.664C464.759 327.69 465.725 325.98 466.993 324.534C468.262 323.088 469.823 321.964 471.677 321.163C473.531 320.342 475.658 319.931 478.058 319.931C480.459 319.931 482.595 320.342 484.469 321.163C486.342 321.964 487.913 323.088 489.182 324.534C490.47 325.98 491.445 327.69 492.109 329.664C492.772 331.618 493.104 333.758 493.104 336.084V336.7C493.104 339.006 492.772 341.146 492.109 343.12C491.445 345.074 490.47 346.784 489.182 348.25C487.913 349.696 486.352 350.82 484.498 351.621C482.644 352.422 480.517 352.823 478.117 352.823C475.716 352.823 473.58 352.422 471.706 351.621C469.852 350.82 468.281 349.696 466.993 348.25C465.725 346.784 464.759 345.074 464.095 343.12C463.432 341.146 463.1 339.006 463.1 336.7ZM471.531 336.084V336.7C471.531 338.029 471.648 339.27 471.882 340.423C472.116 341.576 472.487 342.592 472.994 343.471C473.521 344.331 474.204 345.006 475.043 345.494C475.882 345.983 476.907 346.227 478.117 346.227C479.288 346.227 480.293 345.983 481.132 345.494C481.971 345.006 482.644 344.331 483.152 343.471C483.659 342.592 484.03 341.576 484.264 340.423C484.518 339.27 484.645 338.029 484.645 336.7V336.084C484.645 334.794 484.518 333.582 484.264 332.449C484.03 331.296 483.649 330.28 483.122 329.4C482.615 328.501 481.942 327.798 481.103 327.289C480.263 326.781 479.249 326.527 478.058 326.527C476.868 326.527 475.853 326.781 475.014 327.289C474.194 327.798 473.521 328.501 472.994 329.4C472.487 330.28 472.116 331.296 471.882 332.449C471.648 333.582 471.531 334.794 471.531 336.084Z" fill="#5C5C5C"/>
<path d="M507.184 320.518V352.237H498.724V320.518H507.184ZM498.198 312.251C498.198 311.019 498.627 310.003 499.486 309.202C500.344 308.401 501.496 308 502.94 308C504.364 308 505.506 308.401 506.365 309.202C507.243 310.003 507.682 311.019 507.682 312.251C507.682 313.482 507.243 314.498 506.365 315.299C505.506 316.101 504.364 316.501 502.94 316.501C501.496 316.501 500.344 316.101 499.486 315.299C498.627 314.498 498.198 313.482 498.198 312.251Z" fill="#5C5C5C"/>
<path d="M522.406 327.289V352.237H513.975V320.518H521.879L522.406 327.289ZM521.176 335.263H518.893C518.893 332.918 519.196 330.807 519.801 328.931C520.405 327.035 521.254 325.423 522.347 324.094C523.44 322.746 524.738 321.72 526.24 321.016C527.763 320.293 529.46 319.931 531.334 319.931C532.817 319.931 534.173 320.146 535.403 320.576C536.632 321.006 537.686 321.69 538.564 322.628C539.462 323.566 540.145 324.807 540.613 326.351C541.101 327.895 541.345 329.781 541.345 332.009V352.237H532.856V331.98C532.856 330.573 532.661 329.478 532.27 328.697C531.88 327.915 531.305 327.368 530.543 327.055C529.802 326.723 528.885 326.557 527.792 326.557C526.66 326.557 525.674 326.781 524.835 327.231C524.016 327.68 523.333 328.306 522.786 329.107C522.259 329.889 521.859 330.807 521.586 331.863C521.313 332.918 521.176 334.051 521.176 335.263Z" fill="#5C5C5C"/>
<path d="M586.746 309.554H595.499V337.755C595.499 341.038 594.796 343.804 593.391 346.051C592.005 348.299 590.083 349.989 587.624 351.123C585.185 352.256 582.375 352.823 579.194 352.823C576.013 352.823 573.183 352.256 570.705 351.123C568.246 349.989 566.314 348.299 564.909 346.051C563.524 343.804 562.831 341.038 562.831 337.755V309.554H571.612V337.755C571.612 339.67 571.915 341.234 572.52 342.445C573.125 343.657 573.993 344.546 575.125 345.113C576.276 345.68 577.633 345.963 579.194 345.963C580.794 345.963 582.15 345.68 583.263 345.113C584.395 344.546 585.253 343.657 585.839 342.445C586.444 341.234 586.746 339.67 586.746 337.755V309.554Z" fill="#5C5C5C"/>
<path d="M619.326 343.471C619.326 342.866 619.151 342.318 618.799 341.83C618.448 341.341 617.794 340.892 616.838 340.481C615.901 340.051 614.545 339.66 612.769 339.309C611.169 338.957 609.676 338.517 608.291 337.989C606.924 337.442 605.734 336.788 604.719 336.025C603.724 335.263 602.943 334.364 602.378 333.328C601.812 332.273 601.529 331.071 601.529 329.723C601.529 328.394 601.812 327.143 602.378 325.97C602.963 324.798 603.792 323.762 604.866 322.863C605.959 321.944 607.286 321.231 608.847 320.723C610.427 320.195 612.203 319.931 614.174 319.931C616.926 319.931 619.287 320.371 621.258 321.25C623.249 322.13 624.771 323.342 625.825 324.886C626.898 326.41 627.435 328.149 627.435 330.104H619.004C619.004 329.283 618.829 328.55 618.477 327.905C618.146 327.241 617.619 326.723 616.897 326.351C616.194 325.96 615.277 325.765 614.145 325.765C613.208 325.765 612.398 325.931 611.715 326.263C611.032 326.576 610.505 327.006 610.135 327.553C609.783 328.081 609.608 328.667 609.608 329.312C609.608 329.801 609.705 330.24 609.901 330.631C610.115 331.003 610.457 331.345 610.925 331.657C611.393 331.97 611.998 332.263 612.74 332.537C613.501 332.791 614.438 333.025 615.55 333.24C617.833 333.709 619.873 334.325 621.668 335.087C623.463 335.83 624.888 336.846 625.942 338.136C626.996 339.406 627.522 341.077 627.522 343.149C627.522 344.556 627.21 345.846 626.586 347.019C625.961 348.191 625.064 349.217 623.893 350.097C622.722 350.957 621.317 351.631 619.677 352.119C618.058 352.588 616.233 352.823 614.204 352.823C611.257 352.823 608.759 352.295 606.71 351.24C604.68 350.185 603.139 348.846 602.085 347.224C601.051 345.582 600.533 343.901 600.533 342.182H608.525C608.564 343.335 608.856 344.263 609.403 344.967C609.969 345.67 610.681 346.178 611.54 346.491C612.418 346.804 613.364 346.96 614.379 346.96C615.472 346.96 616.379 346.813 617.102 346.52C617.824 346.208 618.37 345.797 618.741 345.289C619.131 344.761 619.326 344.155 619.326 343.471Z" fill="#5C5C5C"/>
</svg>
